G04 #@! TF.GenerationSoftware,KiCad,Pcbnew,5.0.2+dfsg1-1*
G04 #@! TF.CreationDate,2020-06-16T14:18:13-07:00*
G04 #@! TF.ProjectId,2016.04.26_LightAlarmV2,32303136-2e30-4342-9e32-365f4c696768,rev?*
G04 #@! TF.SameCoordinates,Original*
G04 #@! TF.FileFunction,Legend,Top*
G04 #@! TF.FilePolarity,Positive*
%FSLAX46Y46*%
G04 Gerber Fmt 4.6, Leading zero omitted, Abs format (unit mm)*
G04 Created by KiCad (PCBNEW 5.0.2+dfsg1-1) date Tue 16 Jun 2020 02:18:13 PM PDT*
%MOMM*%
%LPD*%
G01*
G04 APERTURE LIST*
%ADD10C,0.010000*%
%ADD11C,0.150000*%
G04 APERTURE END LIST*
D10*
X93106666Y-67310000D02*
G75*
G03X93106666Y-67310000I-1666666J0D01*
G01*
X88940000Y-67310000D02*
X93940000Y-67310000D01*
X91440000Y-64810000D02*
X91440000Y-69810000D01*
X93106666Y-35560000D02*
G75*
G03X93106666Y-35560000I-1666666J0D01*
G01*
X88940000Y-35560000D02*
X93940000Y-35560000D01*
X91440000Y-33060000D02*
X91440000Y-38060000D01*
X39766666Y-35560000D02*
G75*
G03X39766666Y-35560000I-1666666J0D01*
G01*
X35600000Y-35560000D02*
X40600000Y-35560000D01*
X38100000Y-33060000D02*
X38100000Y-38060000D01*
D11*
G04 #@! TO.C,U1*
X34544000Y-53594000D02*
X34544000Y-56642000D01*
X34544000Y-56642000D02*
X41656000Y-56642000D01*
X41656000Y-56642000D02*
X41656000Y-53594000D01*
X34544000Y-50546000D02*
X34544000Y-49784000D01*
X34544000Y-49784000D02*
X36068000Y-47498000D01*
X36068000Y-47498000D02*
X40132000Y-47498000D01*
X40132000Y-47498000D02*
X41656000Y-49784000D01*
X41656000Y-49784000D02*
X41656000Y-50546000D01*
G04 #@! TO.C,P3*
X34500820Y-67269360D02*
X34500820Y-74970640D01*
X33500060Y-67269360D02*
X33500060Y-74970640D01*
X33500060Y-74970640D02*
X42699940Y-74970640D01*
X42699940Y-74970640D02*
X42699940Y-67269360D01*
X42699940Y-67269360D02*
X33500060Y-67269360D01*
G04 #@! TO.C,C1*
X66710000Y-62625000D02*
X67910000Y-62625000D01*
X67910000Y-64375000D02*
X66710000Y-64375000D01*
G04 #@! TO.C,F1*
X52882800Y-72999600D02*
X56337200Y-72999600D01*
X52882800Y-69240400D02*
X56337200Y-69240400D01*
G04 #@! TO.C,P1*
X64740000Y-67030000D02*
X64740000Y-68580000D01*
X66040000Y-67030000D02*
X64740000Y-67030000D01*
X70231000Y-68453000D02*
X76073000Y-68453000D01*
X76073000Y-68453000D02*
X76073000Y-68707000D01*
X76073000Y-68707000D02*
X70231000Y-68707000D01*
X70231000Y-68707000D02*
X70231000Y-68580000D01*
X70231000Y-68580000D02*
X76073000Y-68580000D01*
X67564000Y-68326000D02*
X67183000Y-68326000D01*
X67564000Y-68834000D02*
X67183000Y-68834000D01*
X67564000Y-70866000D02*
X67183000Y-70866000D01*
X67564000Y-71374000D02*
X67183000Y-71374000D01*
X67564000Y-73406000D02*
X67183000Y-73406000D01*
X67564000Y-73914000D02*
X67183000Y-73914000D01*
X70104000Y-69850000D02*
X70104000Y-67310000D01*
X76200000Y-68834000D02*
X70104000Y-68834000D01*
X76200000Y-68326000D02*
X76200000Y-68834000D01*
X70104000Y-68326000D02*
X76200000Y-68326000D01*
X67564000Y-69850000D02*
X70104000Y-69850000D01*
X67564000Y-67310000D02*
X67564000Y-69850000D01*
X67564000Y-67310000D02*
X70104000Y-67310000D01*
X67564000Y-72390000D02*
X70104000Y-72390000D01*
X67564000Y-72390000D02*
X67564000Y-74930000D01*
X70104000Y-73406000D02*
X76200000Y-73406000D01*
X76200000Y-73406000D02*
X76200000Y-73914000D01*
X76200000Y-73914000D02*
X70104000Y-73914000D01*
X70104000Y-74930000D02*
X70104000Y-72390000D01*
X70104000Y-72390000D02*
X70104000Y-69850000D01*
X76200000Y-71374000D02*
X70104000Y-71374000D01*
X76200000Y-70866000D02*
X76200000Y-71374000D01*
X70104000Y-70866000D02*
X76200000Y-70866000D01*
X67564000Y-72390000D02*
X70104000Y-72390000D01*
X67564000Y-69850000D02*
X67564000Y-72390000D01*
X67564000Y-69850000D02*
X70104000Y-69850000D01*
X67564000Y-74930000D02*
X70104000Y-74930000D01*
G04 #@! TO.C,P2*
X91410000Y-41630000D02*
X91410000Y-43180000D01*
X92710000Y-41630000D02*
X91410000Y-41630000D01*
X96901000Y-43053000D02*
X102743000Y-43053000D01*
X102743000Y-43053000D02*
X102743000Y-43307000D01*
X102743000Y-43307000D02*
X96901000Y-43307000D01*
X96901000Y-43307000D02*
X96901000Y-43180000D01*
X96901000Y-43180000D02*
X102743000Y-43180000D01*
X94234000Y-42926000D02*
X93853000Y-42926000D01*
X94234000Y-43434000D02*
X93853000Y-43434000D01*
X94234000Y-45466000D02*
X93853000Y-45466000D01*
X94234000Y-45974000D02*
X93853000Y-45974000D01*
X94234000Y-48006000D02*
X93853000Y-48006000D01*
X94234000Y-48514000D02*
X93853000Y-48514000D01*
X94234000Y-50546000D02*
X93853000Y-50546000D01*
X94234000Y-51054000D02*
X93853000Y-51054000D01*
X94234000Y-53594000D02*
X93853000Y-53594000D01*
X94234000Y-53086000D02*
X93853000Y-53086000D01*
X96774000Y-44450000D02*
X96774000Y-41910000D01*
X102870000Y-43434000D02*
X96774000Y-43434000D01*
X102870000Y-42926000D02*
X102870000Y-43434000D01*
X96774000Y-42926000D02*
X102870000Y-42926000D01*
X94234000Y-44450000D02*
X96774000Y-44450000D01*
X94234000Y-41910000D02*
X94234000Y-44450000D01*
X94234000Y-41910000D02*
X96774000Y-41910000D01*
X94234000Y-46990000D02*
X96774000Y-46990000D01*
X94234000Y-46990000D02*
X94234000Y-49530000D01*
X94234000Y-49530000D02*
X96774000Y-49530000D01*
X96774000Y-48006000D02*
X102870000Y-48006000D01*
X102870000Y-48006000D02*
X102870000Y-48514000D01*
X102870000Y-48514000D02*
X96774000Y-48514000D01*
X96774000Y-49530000D02*
X96774000Y-46990000D01*
X96774000Y-46990000D02*
X96774000Y-44450000D01*
X102870000Y-45974000D02*
X96774000Y-45974000D01*
X102870000Y-45466000D02*
X102870000Y-45974000D01*
X96774000Y-45466000D02*
X102870000Y-45466000D01*
X94234000Y-46990000D02*
X96774000Y-46990000D01*
X94234000Y-44450000D02*
X94234000Y-46990000D01*
X94234000Y-44450000D02*
X96774000Y-44450000D01*
X94234000Y-52070000D02*
X96774000Y-52070000D01*
X94234000Y-52070000D02*
X94234000Y-54610000D01*
X94234000Y-54610000D02*
X96774000Y-54610000D01*
X96774000Y-53086000D02*
X102870000Y-53086000D01*
X102870000Y-53086000D02*
X102870000Y-53594000D01*
X102870000Y-53594000D02*
X96774000Y-53594000D01*
X96774000Y-54610000D02*
X96774000Y-52070000D01*
X96774000Y-52070000D02*
X96774000Y-49530000D01*
X102870000Y-51054000D02*
X96774000Y-51054000D01*
X102870000Y-50546000D02*
X102870000Y-51054000D01*
X96774000Y-50546000D02*
X102870000Y-50546000D01*
X94234000Y-52070000D02*
X96774000Y-52070000D01*
X94234000Y-49530000D02*
X94234000Y-52070000D01*
X94234000Y-49530000D02*
X96774000Y-49530000D01*
G04 #@! TO.C,R1*
X55210000Y-42785000D02*
X54010000Y-42785000D01*
X54010000Y-41035000D02*
X55210000Y-41035000D01*
G04 #@! TO.C,R3*
X87030000Y-44845000D02*
X88230000Y-44845000D01*
X88230000Y-46595000D02*
X87030000Y-46595000D01*
G04 #@! TO.C,R4*
X87030000Y-49925000D02*
X88230000Y-49925000D01*
X88230000Y-51675000D02*
X87030000Y-51675000D01*
G04 #@! TO.C,SW1*
X49070000Y-49990000D02*
X49070000Y-49790000D01*
X49070000Y-43990000D02*
X49070000Y-44190000D01*
X55070000Y-43990000D02*
X55070000Y-44190000D01*
X55070000Y-49990000D02*
X55070000Y-49790000D01*
X55070000Y-48190000D02*
X55070000Y-45790000D01*
X49070000Y-48190000D02*
X49070000Y-45790000D01*
X49070000Y-49990000D02*
X55070000Y-49990000D01*
X55070000Y-43990000D02*
X49070000Y-43990000D01*
X53770000Y-46990000D02*
G75*
G03X53770000Y-46990000I-1700000J0D01*
G01*
G04 #@! TO.C,SW2*
X49070000Y-58880000D02*
X49070000Y-58680000D01*
X49070000Y-52880000D02*
X49070000Y-53080000D01*
X55070000Y-52880000D02*
X55070000Y-53080000D01*
X55070000Y-58880000D02*
X55070000Y-58680000D01*
X55070000Y-57080000D02*
X55070000Y-54680000D01*
X49070000Y-57080000D02*
X49070000Y-54680000D01*
X49070000Y-58880000D02*
X55070000Y-58880000D01*
X55070000Y-52880000D02*
X49070000Y-52880000D01*
X53770000Y-55880000D02*
G75*
G03X53770000Y-55880000I-1700000J0D01*
G01*
G04 #@! TO.C,R6*
X81550000Y-59885000D02*
X83550000Y-59885000D01*
X83550000Y-62035000D02*
X81550000Y-62035000D01*
G04 #@! TD*
M02*
