G04 #@! TF.GenerationSoftware,KiCad,Pcbnew,5.0.2+dfsg1-1*
G04 #@! TF.CreationDate,2020-06-16T14:18:13-07:00*
G04 #@! TF.ProjectId,2016.04.26_LightAlarmV2,32303136-2e30-4342-9e32-365f4c696768,rev?*
G04 #@! TF.SameCoordinates,Original*
G04 #@! TF.FileFunction,Paste,Top*
G04 #@! TF.FilePolarity,Positive*
%FSLAX46Y46*%
G04 Gerber Fmt 4.6, Leading zero omitted, Abs format (unit mm)*
G04 Created by KiCad (PCBNEW 5.0.2+dfsg1-1) date Tue 16 Jun 2020 02:18:13 PM PDT*
%MOMM*%
%LPD*%
G01*
G04 APERTURE LIST*
%ADD10C,0.010000*%
%ADD11R,3.657600X2.032000*%
%ADD12R,1.016000X2.032000*%
%ADD13R,2.301240X0.500380*%
%ADD14R,2.499360X1.998980*%
%ADD15R,1.500000X1.300000*%
%ADD16R,3.500000X3.500000*%
%ADD17R,2.750000X1.000000*%
%ADD18O,1.100000X2.400000*%
%ADD19R,2.400000X1.100000*%
%ADD20O,2.400000X1.100000*%
%ADD21R,2.000000X1.700000*%
G04 APERTURE END LIST*
D10*
X93106666Y-67310000D02*
G75*
G03X93106666Y-67310000I-1666666J0D01*
G01*
X88940000Y-67310000D02*
X93940000Y-67310000D01*
X91440000Y-64810000D02*
X91440000Y-69810000D01*
X93106666Y-35560000D02*
G75*
G03X93106666Y-35560000I-1666666J0D01*
G01*
X88940000Y-35560000D02*
X93940000Y-35560000D01*
X91440000Y-33060000D02*
X91440000Y-38060000D01*
X39766666Y-35560000D02*
G75*
G03X39766666Y-35560000I-1666666J0D01*
G01*
X35600000Y-35560000D02*
X40600000Y-35560000D01*
X38100000Y-33060000D02*
X38100000Y-38060000D01*
D11*
G04 #@! TO.C,U1*
X38100000Y-48768000D03*
D12*
X38100000Y-55372000D03*
X40386000Y-55372000D03*
X35814000Y-55372000D03*
G04 #@! TD*
D13*
G04 #@! TO.C,P3*
X41549320Y-69519800D03*
X41549320Y-70319900D03*
X41549320Y-71120000D03*
X41549320Y-71920100D03*
X41549320Y-72720200D03*
D14*
X41450260Y-66669920D03*
X35951160Y-66669920D03*
X41450260Y-75570080D03*
X35951160Y-75570080D03*
G04 #@! TD*
D15*
G04 #@! TO.C,C1*
X68660000Y-63500000D03*
X65960000Y-63500000D03*
G04 #@! TD*
D16*
G04 #@! TO.C,F1*
X51206400Y-71120000D03*
X58013600Y-71120000D03*
G04 #@! TD*
D15*
G04 #@! TO.C,R1*
X53260000Y-41910000D03*
X55960000Y-41910000D03*
G04 #@! TD*
G04 #@! TO.C,R3*
X88980000Y-45720000D03*
X86280000Y-45720000D03*
G04 #@! TD*
G04 #@! TO.C,R4*
X88980000Y-50800000D03*
X86280000Y-50800000D03*
G04 #@! TD*
D17*
G04 #@! TO.C,SW1*
X49195000Y-48990000D03*
X54945000Y-48990000D03*
X54945000Y-44990000D03*
X49195000Y-44990000D03*
G04 #@! TD*
G04 #@! TO.C,SW2*
X49195000Y-57880000D03*
X54945000Y-57880000D03*
X54945000Y-53880000D03*
X49195000Y-53880000D03*
G04 #@! TD*
D18*
G04 #@! TO.C,U2*
X65220000Y-58930000D03*
X67220000Y-58930000D03*
X69220000Y-58930000D03*
X71220000Y-58930000D03*
X73220000Y-58930000D03*
X75220000Y-58930000D03*
D19*
X62230000Y-43180000D03*
D20*
X62230000Y-45180000D03*
X62230000Y-47180000D03*
X62230000Y-49180000D03*
X62230000Y-51180000D03*
X62230000Y-53180000D03*
X62230000Y-55180000D03*
X62230000Y-57180000D03*
X78230000Y-57180000D03*
X78230000Y-55180000D03*
X78230000Y-53180000D03*
X78230000Y-51180000D03*
X78230000Y-49180000D03*
X78230000Y-47180000D03*
X78230000Y-45180000D03*
X78230000Y-43180000D03*
G04 #@! TD*
D21*
G04 #@! TO.C,R6*
X84550000Y-60960000D03*
X80550000Y-60960000D03*
G04 #@! TD*
M02*
